<svg xmlns="http://www.w3.org/2000/svg" xml:space="preserve" width="15.633" height="15.702"><g style="display:inline"><g fill="green" stroke="#098422" stroke-linecap="round" stroke-linejoin="round" stroke-width=".1"><path d="M6.607 1.154C3.286 1.154.593 4.38.594 8.357c0 3.978 2.74 7.286 6.062 7.286.3 0 .902.068.852-.166-2.94-.507-5.488-3.365-5.488-7.155 0-3.665 2.254-6.739 5.224-7.127a5 5 0 0 0-.637-.04M9.197 1.154c3.321 0 6.014 3.225 6.014 7.203s-2.741 7.286-6.062 7.286c-.302 0-.903.068-.852-.166 2.939-.507 5.488-3.365 5.488-7.155 0-3.665-2.254-6.739-5.225-7.127q.318-.04.637-.04"/></g><g fill="#ff0" stroke="#000" stroke-width=".15"><path d="m8.94 1.73-.635-.074-.261.604-.255-.607-.636.069.38-.532-.375-.536.636.074.26-.604.256.607.636-.068-.38.532Z" style="stroke-width:.0974991" transform="translate(-.156)"/><path d="m15.654 12.606-.799-.093-.328.756-.32-.76-.8.086.478-.666-.471-.67.798.093.329-.756.32.76.8-.086-.479.666z" style="stroke-width:.122259" transform="translate(-.156)"/><path d="m2.603 12.613-.823-.094-.337.76-.33-.763-.823.086.492-.669-.485-.673.822.094.338-.76.33.763.822-.086-.492.669z" style="stroke-width:.12429" transform="translate(-.156)"/></g><g fill="#ff0" stroke="#000" transform="translate(-.156)"><g stroke-linecap="round" stroke-linejoin="round" stroke-width=".1"><path d="m5.125 5.365-.434.385.031 6.87s.518-.692.515-1.077c-.02-2.462-.112-6.178-.112-6.178"/><path d="m5.124 5.36 4.154-1.895-.023 6.186-4.129 1.966Z"/><path d="m9.25 9.657-4.104 1.96s-1.112 1.469.255 1.901c1.666-.962 5.163-2.715 5.163-2.715l-.08-7.344s-.655.367-1.208.01z"/></g><path stroke-linecap="round" stroke-linejoin="round" stroke-width=".15" d="M5.723 8.021c1.492-.751 1.492-.729 1.492-.729" style="paint-order:stroke fill markers"/><ellipse cx="9.852" cy="2.852" stroke-width=".08" rx=".633" ry=".508"/></g><g fill="none" stroke="#000" stroke-linecap="round" stroke-linejoin="round" stroke-width=".04"><path d="m9.865 3.656.013 6.56-4.915 2.64" style="paint-order:fill markers stroke" transform="translate(-.156)"/><path d="m10.201 3.572.003 6.892-4.887 2.602" style="paint-order:fill markers stroke" transform="translate(-.156)"/><path d="m9.553 3.643.001 6.382-4.392 2.312" style="paint-order:fill markers stroke" transform="translate(-.156)"/></g><path fill="#ff0" d="m9.223 3.43-.852.392.01.112.843-.342z" style="paint-order:stroke markers fill" transform="translate(-.156)"/></g></svg>